HIERARCHY
ROOT Hips
{
 OFFSET 0.000000 0.000000 0.000000
 CHANNELS 6 Xposition Yposition Zposition Yrotation Xrotation Zrotation
 JOINT Chest
 {
  OFFSET 0.000000 10.080317 -0.001081
  CHANNELS 3 Yrotation Xrotation Zrotation
  JOINT Chest2
  {
   OFFSET 0.000000 11.096852 0.001963
   CHANNELS 3 Yrotation Xrotation Zrotation
   JOINT Chest3
   {
    OFFSET 0.000000 10.026525 0.000000
    CHANNELS 3 Yrotation Xrotation Zrotation
    JOINT Chest4
    {
     OFFSET 0.000000 10.026525 0.000000
     CHANNELS 3 Yrotation Xrotation Zrotation
     JOINT Neck
     {
      OFFSET 0.000000 14.108171 0.000000
      CHANNELS 3 Yrotation Xrotation Zrotation
      JOINT Head
      {
       OFFSET 0.000000 9.333493 0.004668
       CHANNELS 3 Yrotation Xrotation Zrotation
       End Site
       {
        OFFSET 0.000000 17.851786 0.002438
       }
      }
     }
     JOINT RightCollar
     {
      OFFSET -3.071622 7.873185 0.000000
      CHANNELS 3 Yrotation Xrotation Zrotation
      JOINT RightShoulder
      {
       OFFSET -14.378659 0.000000 0.000000
       CHANNELS 3 Yrotation Xrotation Zrotation
       JOINT RightElbow
       {
        OFFSET -30.778728 0.000000 0.000000
        CHANNELS 3 Yrotation Xrotation Zrotation
        JOINT RightWrist
        {
         OFFSET -25.164217 0.000000 0.000000
         CHANNELS 3 Yrotation Xrotation Zrotation
         End Site
         {
          OFFSET -18.796788 0.000000 0.000000
         }
        }
       }
      }
     }
     JOINT LeftCollar
     {
      OFFSET 3.071622 7.873185 0.000000
      CHANNELS 3 Yrotation Xrotation Zrotation
      JOINT LeftShoulder
      {
       OFFSET 14.378659 0.000000 0.000000
       CHANNELS 3 Yrotation Xrotation Zrotation
       JOINT LeftElbow
       {
        OFFSET 30.778728 0.000000 0.000000
        CHANNELS 3 Yrotation Xrotation Zrotation
        JOINT LeftWrist
        {
         OFFSET 25.164217 0.000000 0.000000
         CHANNELS 3 Yrotation Xrotation Zrotation
         End Site
         {
          OFFSET 18.796788 0.000000 0.000000
         }
        }
       }
      }
     }
    }
   }
  }
 }
 JOINT RightHip
 {
  OFFSET -8.194923 0.005295 0.000540
  CHANNELS 3 Yrotation Xrotation Zrotation
  JOINT RightKnee
  {
   OFFSET 0.000000 -42.473320 -0.000511
   CHANNELS 3 Yrotation Xrotation Zrotation
   JOINT RightAnkle
   {
    OFFSET 0.000000 -41.474259 -0.000865
    CHANNELS 3 Yrotation Xrotation Zrotation
    JOINT RightToe
    {
     OFFSET 0.000000 -7.354994 16.712725
     CHANNELS 3 Yrotation Xrotation Zrotation
     End Site
     {
      OFFSET 0.000000 -1.553903 6.764158
     }
    }
   }
  }
 }
 JOINT LeftHip
 {
  OFFSET 8.194923 0.005295 0.000540
  CHANNELS 3 Yrotation Xrotation Zrotation
  JOINT LeftKnee
  {
   OFFSET 0.000000 -42.473320 -0.000511
   CHANNELS 3 Yrotation Xrotation Zrotation
   JOINT LeftAnkle
   {
    OFFSET 0.000000 -41.474259 -0.000865
    CHANNELS 3 Yrotation Xrotation Zrotation
    JOINT LeftToe
    {
     OFFSET 0.000000 -7.354994 16.712725
     CHANNELS 3 Yrotation Xrotation Zrotation
     End Site
     {
      OFFSET 0.000000 -1.553903 6.764158
     }
    }
   }
  }
 }
}
MOTION
Frames: 11
Frame Time: 0.016667
0.000000 91.111157 0.000000 0.000000 -5.826342 0.000000 0.000000 11.116423 0.000000 0.000000 -5.290081 0.000000 0.000000 0.000000 0.000000 0.000000 0.000000 0.000000 0.000000 12.665069 0.000000 0.000000 0.575450 0.000000 0.000000 0.000000 0.000000 0.000000 0.000000 0.000000 2.337306 0.000000 0.000000 -2.337306 0.000000 0.000000 0.000000 0.000000 0.000000 0.000000 0.000000 0.000000 -2.337306 0.000000 0.000000 2.337306 0.000000 0.000000 0.000000 8.578828 0.000000 0.000000 1.905768 0.000000 0.000000 -4.658254 0.000000 0.000000 0.000000 0.000000 0.000000 8.578828 0.000000 0.000000 1.905768 0.000000 0.000000 -4.658254 0.000000 0.000000 0.000000 0.000000
-53.977916 92.668825 67.793221 -2.036415 -5.716882 -0.816035 -0.678256 3.167840 -0.447900 -0.293252 1.419085 -0.245960 -0.293252 1.419085 -0.245960 -0.219356 1.064433 -0.183780 0.469101 17.623769 0.058340 0.845611 -3.455132 -0.051888 -2.501880 -0.626007 9.379212 -6.306777 -2.656480 72.780161 18.072550 18.110145 10.772590 -3.261163 2.818312 -8.686108 -3.191877 -0.178063 -5.356430 -1.159806 -8.549995 -71.452115 -15.029136 25.438627 -17.572724 3.948968 5.412671 15.612117 -4.978115 6.794990 -2.953506 -0.689864 3.074346 -0.607442 -9.958769 -2.749832 5.060260 0.152552 0.132361 0.087729 4.480717 9.814303 7.006329 -1.903726 3.804483 -0.237515 3.191376 -6.673653 -5.031504 -0.192868 -0.241767 -0.224695
-53.977806 92.669671 67.769561 -2.014597 -5.727040 -0.823573 -0.661456 3.161777 -0.457940 -0.286630 1.415932 -0.249413 -0.286630 1.415932 -0.249413 -0.214384 1.062066 -0.186386 0.462560 17.627080 0.067015 0.830581 -3.449070 -0.033641 -2.535286 -0.625965 9.398957 -6.304641 -2.677863 72.836621 18.130080 18.112219 10.777684 -3.265822 2.811376 -8.639921 -3.209825 -0.161896 -5.343479 -1.199088 -8.567792 -71.487845 -15.107574 25.439852 -17.646090 3.934888 5.405341 15.593795 -4.999260 6.772872 -2.939516 -0.685658 3.114724 -0.607132 -9.970458 -2.772195 5.035554 0.152782 0.124049 0.096888 4.495955 9.779014 7.008842 -1.943979 3.850796 -0.233604 3.173677 -6.687441 -4.991580 -0.192745 -0.241341 -0.223212
-53.973934 92.670478 67.749804 -1.984819 -5.734847 -0.833480 -0.654089 3.158914 -0.460636 -0.283814 1.414267 -0.249320 -0.283814 1.414267 -0.249320 -0.212273 1.060816 -0.186324 0.460491 17.629795 0.068326 0.826309 -3.444045 -0.030502 -2.552804 -0.626041 9.398158 -6.252552 -2.707456 72.888180 18.178111 18.092316 10.810687 -3.277627 2.798306 -8.625678 -3.232098 -0.166854 -5.349900 -1.248533 -8.579070 -71.525136 -15.173596 25.438899 -17.708243 3.926602 5.399937 15.576692 -5.022245 6.763652 -2.932744 -0.684011 3.130659 -0.600654 -9.976158 -2.779007 5.020885 0.150984 0.112577 0.097322 4.504921 9.737705 7.009790 -1.976539 3.909908 -0.221878 3.153964 -6.711499 -4.967635 -0.189709 -0.237880 -0.213444
-53.968205 92.673343 67.728791 -1.959844 -5.751279 -0.848974 -0.648814 3.154718 -0.462364 -0.281707 1.413576 -0.248323 -0.281707 1.413576 -0.248323 -0.210695 1.060297 -0.185581 0.463178 17.639046 0.074295 0.829203 -3.426891 -0.020349 -2.541352 -0.627069 9.398110 -6.213603 -2.706069 72.927478 18.277639 18.066041 10.857052 -3.289142 2.783730 -8.591631 -3.231513 -0.170092 -5.356287 -1.311545 -8.579991 -71.564476 -15.264066 25.455514 -17.773698 3.930610 5.407616 15.570784 -5.035203 6.761531 -2.918839 -0.677069 3.145193 -0.597216 -9.991990 -2.772351 5.013522 0.153810 0.094347 0.093330 4.496015 9.712091 7.011176 -1.977637 3.959904 -0.215430 3.145199 -6.724361 -4.938931 -0.189796 -0.238843 -0.204542
-53.957791 92.675193 67.715560 -1.947200 -5.765677 -0.857982 -0.645486 3.161458 -0.464218 -0.279969 1.415506 -0.247345 -0.279969 1.415506 -0.247345 -0.209393 1.061744 -0.184851 0.460842 17.633498 0.080739 0.822722 -3.437244 -0.007700 -2.528231 -0.636955 9.405786 -6.193179 -2.718630 72.958384 18.378101 18.073935 10.936875 -3.301389 2.785297 -8.581270 -3.219760 -0.170418 -5.366015 -1.343370 -8.621877 -71.601109 -15.339850 25.481949 -17.850177 3.919978 5.412536 15.577042 -5.052921 6.752005 -2.914916 -0.653737 3.178642 -0.595823 -10.004141 -2.784413 5.003381 0.156476 0.082005 0.098433 4.473002 9.704353 6.990640 -1.981213 3.990730 -0.184913 3.154459 -6.734488 -4.923611 -0.188150 -0.238672 -0.195824
-53.942474 92.676119 67.694448 -1.949067 -5.769420 -0.851576 -0.623636 3.155523 -0.467161 -0.271225 1.414094 -0.246001 -0.271225 1.414094 -0.246001 -0.202839 1.060680 -0.183864 0.446471 17.628945 0.082116 0.795757 -3.445768 -0.000300 -2.539885 -0.630451 9.402499 -6.157613 -2.736730 72.979809 18.472216 18.054156 11.020750 -3.306916 2.792501 -8.560544 -3.233329 -0.142634 -5.382352 -1.370425 -8.656671 -71.651425 -15.423851 25.461093 -17.909410 3.900147 5.407089 15.572904 -5.072387 6.710806 -2.921331 -0.616773 3.235916 -0.600876 -10.023656 -2.803618 4.980894 0.161078 0.072572 0.115252 4.418279 9.703890 6.950472 -1.947075 3.988627 -0.169369 3.162763 -6.724547 -4.887192 -0.189430 -0.237494 -0.194407
-53.930840 92.675843 67.677774 -1.962686 -5.768376 -0.842550 -0.604636 3.158112 -0.470683 -0.263301 1.415064 -0.244305 -0.263301 1.415064 -0.244305 -0.196900 1.061404 -0.182610 0.438383 17.621432 0.084584 0.780022 -3.459768 0.006960 -2.527729 -0.635432 9.416050 -6.146924 -2.768036 72.995691 18.558329 18.063256 11.116167 -3.320816 2.785283 -8.538413 -3.226812 -0.143277 -5.401969 -1.388735 -8.677336 -71.697327 -15.510193 25.410818 -17.971277 3.906054 5.392298 15.570435 -5.090164 6.657019 -2.916925 -0.570620 3.313015 -0.627785 -10.019991 -2.839105 4.961442 0.163749 0.063811 0.134293 4.358455 9.715310 6.905630 -1.925759 3.966496 -0.151079 3.201106 -6.708808 -4.865913 -0.188339 -0.236523 -0.184205
-53.924014 92.673397 67.664727 -1.991321 -5.766251 -0.836367 -0.580591 3.155575 -0.471910 -0.253497 1.413775 -0.243963 -0.253497 1.413775 -0.243963 -0.189548 1.060433 -0.182376 0.432163 17.618179 0.090468 0.766554 -3.465868 0.019914 -2.524681 -0.626232 9.440145 -6.104777 -2.794025 73.016195 18.649580 18.086809 11.173584 -3.340894 2.789059 -8.554279 -3.237018 -0.130653 -5.401041 -1.382382 -8.696591 -71.756595 -15.585666 25.355953 -18.050940 3.893526 5.394370 15.614946 -5.102532 6.592992 -2.898357 -0.504213 3.409474 -0.661490 -10.066613 -2.892278 4.937464 0.163243 0.062925 0.153598 4.351090 9.736956 6.871443 -1.964264 3.922816 -0.132113 3.282181 -6.692624 -4.846450 -0.183582 -0.230141 -0.177356
-53.911686 92.669590 67.650672 -2.013854 -5.749729 -0.832606 -0.564356 3.151568 -0.468803 -0.246057 1.412427 -0.241069 -0.246057 1.412427 -0.241069 -0.183976 1.059418 -0.180224 0.420721 17.622233 0.093275 0.744479 -3.458397 0.029005 -2.513067 -0.608530 9.453179 -6.062486 -2.831407 73.043890 18.726933 18.094929 11.200145 -3.352013 2.808421 -8.579739 -3.242785 -0.122179 -5.406733 -1.369099 -8.700358 -71.818307 -15.673597 25.337579 -18.114495 3.884065 5.387418 15.641112 -5.125452 6.507929 -2.893273 -0.406048 3.524540 -0.679394 -10.116861 -2.964969 4.914559 0.162015 0.066557 0.170285 4.329370 9.754919 6.833896 -2.012602 3.862837 -0.115034 3.382972 -6.683241 -4.826425 -0.183996 -0.214466 -0.169110
-53.892567 92.662351 67.634651 -2.031482 -5.724051 -0.832502 -0.551788 3.148069 -0.462764 -0.240013 1.411754 -0.238585 -0.240013 1.411754 -0.238585 -0.179449 1.058909 -0.178375 0.411635 17.620988 0.099202 0.725702 -3.460773 0.043025 -2.526349 -0.615151 9.467173 -6.014156 -2.839172 73.067085 18.825726 18.077236 11.227134 -3.378637 2.811760 -8.604817 -3.258920 -0.123520 -5.406082 -1.361217 -8.690270 -71.861229 -15.763488 25.329143 -18.185550 3.879034 5.402718 15.646137 -5.148346 6.395040 -2.866904 -0.305792 3.669567 -0.721884 -10.235431 -3.044676 4.912929 0.158960 0.071542 0.177251 4.266901 9.763824 6.782966 -2.052357 3.817308 -0.099013 3.525345 -6.698014 -4.813419 -0.184518 -0.191620 -0.151748
